<svg width="275" height="226" viewBox="0 0 275 226" fill="none" xmlns="http://www.w3.org/2000/svg">
<path d="M63.8342 216.562C62.7631 220.079 63.8342 225.977 63.8342 225.977H6.53848C6.53848 225.977 1.80769 226.163 0.889023 224.632C-0.724609 221.942 0.351454 218.176 0.351454 218.176C0.351454 218.176 9.4976 203.919 19.4506 196.656C31.8048 187.64 71.9042 171.908 85.3542 167.873C98.8042 163.838 151.351 154.208 191.34 138.552C207.371 132.275 219.853 128.061 231.69 120.798C243.527 113.535 261.574 100.494 253.21 87.4417C247.184 78.0378 233.303 77.7578 225.772 79.3718C218.241 80.9858 204.251 86.6348 194.568 94.9737C184.885 103.313 164.44 118.646 164.44 118.646C164.44 118.646 138.87 139.289 119.786 147.429C110.222 151.508 94.5002 155.768 94.5002 155.768C94.5002 155.768 71.0972 163.838 53.0742 150.388C35.0513 136.938 46.6182 106.541 46.6182 106.541L88.5822 6.20381C88.5822 6.20381 89.9272 2.97581 88.5822 1.36181C87.7841 0.404134 86.7967 0.109408 86.1255 0.0280726L85.3542 0.0168125C85.3542 0.0168125 85.6656 -0.0276689 86.1255 0.0280726L122.207 0.554812C122.207 0.554812 124.463 0.572222 125.704 1.36181C126.893 2.11849 127.587 3.78281 127.587 3.78281L165.785 94.9737C165.785 94.9737 166.818 97.1621 167.13 98.4707C167.455 99.8341 166.592 102.237 166.592 102.237L145.879 118.646C145.879 118.646 143.705 118.983 142.382 118.646C141.244 118.356 139.692 117.301 139.692 117.301L118.441 69.4188C118.441 69.4188 111.716 53.0098 101.494 51.6648C85.7988 49.5996 71.9042 79.3718 71.9042 79.3718C71.9042 79.3718 49.0392 112.728 66.2552 132.634C83.4712 152.54 118.441 138.552 118.441 138.552C118.441 138.552 144.266 128.868 163.095 114.611C181.924 100.354 194.568 87.7108 205.059 79.3718C215.55 71.0328 220.218 67.9393 231.69 66.1908C247.339 63.8055 264.509 66.7288 270.695 77.2198C277.486 88.7379 273.892 101.592 264.239 110.845C257.784 117.032 231.69 128.061 231.69 128.061C231.69 128.061 128.663 164.376 116.558 170.294C104.453 176.212 92.0233 182.886 79.9742 195.311C72.7193 202.792 65.7184 210.375 63.8342 216.562Z" fill="white"/>
<path d="M134.769 6.4551C133.423 4.30311 133.961 0.537109 133.961 0.537109H179.96C179.96 0.537109 190.133 1.85555 196.638 3.76511C208.96 7.38231 216.309 10.4217 227.035 17.4841C237.157 24.1487 242.528 28.8464 249.9 38.4661C255.226 45.4166 261.198 57.8341 261.198 57.8341C261.198 57.8341 261.804 58.9101 261.198 59.9861C260.852 60.5999 259.584 60.5241 259.584 60.5241C259.584 60.5241 249.106 59.2526 242.099 59.9861C235.308 60.6969 225.152 64.2901 225.152 64.2901C225.152 64.2901 224.636 60.3279 224.076 57.8341C221.799 47.7032 217.351 39.8111 213.585 34.1621C209.165 27.5327 204.708 22.5951 194.486 16.4081C184.264 10.2211 172.697 9.9521 172.697 9.9521H138.534C138.534 9.9521 136.114 8.6071 134.769 6.4551Z" fill="white"/>
<path d="M161.401 167.585C161.134 166.24 161.67 165.433 161.67 165.433L188.839 156.556C188.839 156.556 190.314 156.079 191.26 156.287C192.143 156.481 193.143 157.363 193.143 157.363L195.026 161.667L208.207 193.409L213.049 205.514L216.277 212.777C216.277 212.777 217.319 214.54 218.429 214.66C219.704 214.798 221.119 212.777 221.119 212.777L224.616 205.514C224.616 205.514 227.684 199.064 229.189 194.754C232.402 185.555 233.23 179.988 234.03 170.277C234.702 162.11 234.061 157.49 234.03 149.295C234.016 145.829 233.761 140.418 233.761 140.418C233.761 140.418 234.077 138.298 234.837 137.459C235.819 136.375 238.066 135.843 238.066 135.843C238.066 135.843 247.447 132.691 253.13 129.925C259.059 127.04 267.656 121.317 267.656 121.317C267.656 121.317 269.159 121.007 270.076 121.319C271.07 121.657 271.691 122.931 271.691 122.931C271.691 122.931 271.659 140.222 270.345 151.178L270.334 151.27C269.244 160.356 268.635 165.431 266.311 174.31C263.788 183.951 260.392 194.754 258.241 198.52C256.091 202.286 249.377 214.316 239.949 220.04C234.747 223.199 227.577 225.151 225.423 225.689C223.27 226.227 210.896 225.958 207.4 225.689C203.905 225.42 196.777 222.574 190.991 218.695C186.789 215.877 184.483 214.026 181.307 210.087C178.061 206.06 174.851 198.52 174.851 198.52C174.851 198.52 161.669 168.93 161.401 167.585Z" fill="white"/>
</svg>
