<svg width="35" height="35" viewBox="0 0 35 35" fill="none" xmlns="http://www.w3.org/2000/svg">
<rect width="35" height="35" rx="17.5" transform="matrix(-4.37114e-08 1 1 4.37114e-08 0 0)" fill="#9BA57D"/>
<path fill-rule="evenodd" clip-rule="evenodd" d="M13.8571 13.8095V13.3333C13.8571 12.4493 14.2083 11.6014 14.8335 10.9763C15.4586 10.3512 16.3064 10 17.1905 10C18.0745 10 18.9224 10.3512 19.5475 10.9763C20.1726 11.6014 20.5238 12.4493 20.5238 13.3333V13.8095H23.381V26.1905H11V13.8095H13.8571ZM14.8095 13.3333C14.8095 12.7019 15.0604 12.0963 15.5069 11.6497C15.9534 11.2032 16.559 10.9524 17.1905 10.9524C17.8219 10.9524 18.4275 11.2032 18.8741 11.6497C19.3206 12.0963 19.5714 12.7019 19.5714 13.3333V13.8095H14.8095V13.3333ZM13.8571 14.7619V16.1905H14.8095V14.7619H19.5714V16.1905H20.5238V14.7619H22.4286V25.2381H11.9524V14.7619H13.8571Z" fill="#F2F2F2"/>
</svg>
