<svg width="37" height="33" viewBox="0 0 37 33" fill="none" xmlns="http://www.w3.org/2000/svg">
<path d="M8.48689 30.8059C8.34448 31.3062 8.48689 32.1452 8.48689 32.1452H0.869304C0.869304 32.1452 0.240336 32.1717 0.118197 31.9539C-0.0963383 31.5712 0.0467265 31.0355 0.0467265 31.0355C0.0467265 31.0355 1.26272 29.0074 2.586 27.9743C4.22851 26.6919 9.55981 24.4539 11.348 23.8799C13.1362 23.3059 20.1224 21.9361 25.4391 19.709C27.5704 18.8162 29.2299 18.2166 30.8037 17.1835C32.3775 16.1503 34.7768 14.2953 33.6648 12.4386C32.8636 11.1009 31.0181 11.061 30.0169 11.2906C29.0156 11.5202 27.1556 12.3238 25.8682 13.51C24.5809 14.6962 21.8626 16.8774 21.8626 16.8774C21.8626 16.8774 18.4631 19.8139 15.9258 20.9717C14.6542 21.552 12.564 22.158 12.564 22.158C12.564 22.158 9.45252 23.3059 7.05633 21.3927C4.66014 19.4794 6.19799 15.1554 6.19799 15.1554L11.7772 0.882492C11.7772 0.882492 11.956 0.423309 11.7772 0.193718C11.6711 0.057488 11.5398 0.0155633 11.4506 0.00399333L11.348 0.00239158C11.348 0.00239158 11.3894 -0.0039359 11.4506 0.00399333L16.2477 0.078922C16.2477 0.078922 16.5477 0.0813985 16.7126 0.193718C16.8707 0.301355 16.963 0.538105 16.963 0.538105L22.0415 13.51C22.0415 13.51 22.1788 13.8213 22.2203 14.0075C22.2635 14.2014 22.1488 14.5432 22.1488 14.5432L19.3949 16.8774C19.3949 16.8774 19.1059 16.9253 18.93 16.8774C18.7787 16.8361 18.5723 16.686 18.5723 16.686L15.747 9.87482C15.747 9.87482 14.8529 7.54064 13.4939 7.34932C11.4071 7.05554 9.55981 11.2906 9.55981 11.2906C9.55981 11.2906 6.51987 16.0355 8.80877 18.8672C11.0977 21.6988 15.747 19.709 15.747 19.709C15.747 19.709 19.1805 18.3314 21.6838 16.3034C24.1871 14.2753 25.8682 12.4769 27.263 11.2906C28.6578 10.1044 29.2785 9.66437 30.8037 9.41564C32.8842 9.07634 35.167 9.49217 35.9895 10.9845C36.8924 12.623 36.4145 14.4515 35.1311 15.7677C34.2729 16.6478 30.8037 18.2166 30.8037 18.2166C30.8037 18.2166 17.106 23.3825 15.4966 24.2243C13.8873 25.0661 12.2347 26.0155 10.6327 27.783C9.66819 28.8472 8.7374 29.9258 8.48689 30.8059Z" fill="white"/>
<path d="M17.9184 0.918007C17.7395 0.611885 17.811 0.0761719 17.811 0.0761719H23.9266C23.9266 0.0761719 25.2791 0.26372 26.144 0.535355C27.7823 1.0499 28.7592 1.48226 30.1853 2.48688C31.5311 3.43492 32.2452 4.10317 33.2253 5.47157C33.9334 6.46028 34.7274 8.22667 34.7274 8.22667C34.7274 8.22667 34.808 8.37973 34.7274 8.53279C34.6813 8.62011 34.5128 8.60932 34.5128 8.60932C34.5128 8.60932 33.1197 8.42845 32.1881 8.53279C31.2852 8.63391 29.935 9.14503 29.935 9.14503C29.935 9.14503 29.8664 8.58141 29.7919 8.22667C29.4892 6.78554 28.8978 5.6629 28.3971 4.85933C27.8095 3.91629 27.2169 3.21392 25.8579 2.33382C24.4988 1.45372 22.961 1.41545 22.961 1.41545H18.4189C18.4189 1.41545 18.0972 1.22413 17.9184 0.918007Z" fill="white"/>
<path d="M21.4577 23.8395C21.4221 23.6481 21.4934 23.5333 21.4934 23.5333L25.1056 22.2706C25.1056 22.2706 25.3017 22.2028 25.4275 22.2323C25.5448 22.2599 25.6778 22.3854 25.6778 22.3854L25.9282 22.9976L27.6806 27.5129L28.3244 29.2349L28.7535 30.268C28.7535 30.268 28.8921 30.5187 29.0397 30.5359C29.2092 30.5556 29.3973 30.268 29.3973 30.268L29.8622 29.2349C29.8622 29.2349 30.27 28.3174 30.4702 27.7042C30.8974 26.3957 31.0074 25.6038 31.1138 24.2224C31.2032 23.0607 31.1179 22.4034 31.1138 21.2377C31.112 20.7446 31.078 19.975 31.078 19.975C31.078 19.975 31.12 19.6733 31.2211 19.5541C31.3517 19.3998 31.6504 19.3242 31.6504 19.3242C31.6504 19.3242 32.8976 18.8758 33.6532 18.4823C34.4415 18.0718 35.5845 17.2578 35.5845 17.2578C35.5845 17.2578 35.7843 17.2137 35.9061 17.2581C36.0384 17.3062 36.1209 17.4874 36.1209 17.4874C36.1209 17.4874 36.1167 19.9471 35.9419 21.5056L35.9405 21.5186C35.7955 22.8111 35.7146 23.533 35.4057 24.7961C35.0702 26.1676 34.6186 27.7042 34.3327 28.24C34.0468 28.7757 33.1543 30.4869 31.9008 31.3012C31.2091 31.7505 30.2559 32.0282 29.9695 32.1047C29.6832 32.1813 28.0381 32.143 27.5733 32.1047C27.1086 32.0665 26.161 31.6617 25.3917 31.1099C24.833 30.709 24.5264 30.4457 24.1042 29.8854C23.6726 29.3125 23.2459 28.24 23.2459 28.24C23.2459 28.24 21.4932 24.0308 21.4577 23.8395Z" fill="white"/>
</svg>
