<svg width="20" height="19" viewBox="0 0 20 19" fill="none" xmlns="http://www.w3.org/2000/svg">
<path d="M9.20088 2.71705L9.66628 3.22258L10.1304 2.71705C10.6215 2.18758 11.7413 1.24836 13.0822 0.851922C14.3716 0.471446 15.8681 0.583195 17.3003 2.13303C18.7389 3.68952 18.8533 5.33914 18.4933 6.76792C18.1231 8.23528 17.2501 9.45519 16.7603 9.98334L12.5756 14.5145L10.2307 17.0541L9.66499 17.666L9.10189 17.0541L6.75693 14.5145L2.57225 9.98334C2.08372 9.45386 1.2095 8.23528 0.83924 6.76792C0.479268 5.33781 0.593688 3.69085 2.03101 2.1317C3.46318 0.581864 4.96092 0.468786 6.2504 0.850592C7.59001 1.24703 8.71106 2.18625 9.20088 2.71705Z" stroke="#9BA57D" stroke-width="1.33333"/>
</svg>
