<svg width="25" height="24" viewBox="0 0 25 24" fill="none" xmlns="http://www.w3.org/2000/svg">
<path d="M11.5719 3.3203L12.1665 3.97451L12.7596 3.3203C13.3871 2.6351 14.8179 1.41964 16.5313 0.9066C18.1789 0.41422 20.0911 0.558835 21.9211 2.56451C23.7593 4.57879 23.9055 6.71359 23.4455 8.5626C22.9724 10.4615 21.857 12.0402 21.2311 12.7237L15.884 18.5875L12.8877 21.8741L12.1649 22.666L11.4454 21.8741L8.44903 18.5875L3.10194 12.7237C2.4777 12.0385 1.36064 10.4615 0.887535 8.5626C0.42757 6.71187 0.573773 4.58051 2.41035 2.56279C4.24035 0.557113 6.15413 0.410777 7.80179 0.904879C9.51352 1.41792 10.946 2.63337 11.5719 3.3203Z" stroke="#B3B3B3" stroke-width="1.33333"/>
</svg>
