<svg width="124" height="69" viewBox="0 0 124 69" fill="none" xmlns="http://www.w3.org/2000/svg">
<path d="M52.942 30.8059C52.7996 31.3062 52.942 32.1452 52.942 32.1452H45.3244C45.3244 32.1452 44.6954 32.1717 44.5733 31.9539C44.3587 31.5712 44.5018 31.0355 44.5018 31.0355C44.5018 31.0355 45.7178 29.0074 47.0411 27.9743C48.6836 26.6919 54.0149 24.4539 55.8031 23.8799C57.5913 23.3059 64.5775 21.9361 69.8941 19.709C72.0254 18.8162 73.685 18.2166 75.2587 17.1835C76.8325 16.1503 79.2319 14.2953 78.1199 12.4386C77.3187 11.1009 75.4732 11.061 74.4719 11.2906C73.4707 11.5202 71.6106 12.3238 70.3233 13.51C69.036 14.6962 66.3177 16.8774 66.3177 16.8774C66.3177 16.8774 62.9181 19.8139 60.3809 20.9717C59.1093 21.552 57.0191 22.158 57.0191 22.158C57.0191 22.158 53.9076 23.3059 51.5114 21.3927C49.1152 19.4794 50.6531 15.1554 50.6531 15.1554L56.2323 0.882492C56.2323 0.882492 56.4111 0.423309 56.2323 0.193718C56.1262 0.057488 55.9949 0.0155633 55.9056 0.00399333L55.8031 0.00239158C55.8031 0.00239158 55.8445 -0.0039359 55.9056 0.00399333L60.7028 0.078922C60.7028 0.078922 61.0027 0.0813985 61.1677 0.193718C61.3258 0.301355 61.4181 0.538105 61.4181 0.538105L66.4965 13.51C66.4965 13.51 66.6339 13.8213 66.6754 14.0075C66.7185 14.2014 66.6038 14.5432 66.6038 14.5432L63.85 16.8774C63.85 16.8774 63.561 16.9253 63.3851 16.8774C63.2338 16.8361 63.0274 16.686 63.0274 16.686L60.2021 9.87482C60.2021 9.87482 59.308 7.54064 57.9489 7.34932C55.8622 7.05554 54.0149 11.2906 54.0149 11.2906C54.0149 11.2906 50.9749 16.0355 53.2638 18.8672C55.5527 21.6988 60.2021 19.709 60.2021 19.709C60.2021 19.709 63.6356 18.3314 66.1389 16.3034C68.6422 14.2753 70.3233 12.4769 71.7181 11.2906C73.1129 10.1044 73.7336 9.66437 75.2587 9.41564C77.3393 9.07634 79.6221 9.49217 80.4445 10.9845C81.3475 12.623 80.8696 14.4515 79.5862 15.7677C78.728 16.6478 75.2587 18.2166 75.2587 18.2166C75.2587 18.2166 61.5611 23.3825 59.9517 24.2243C58.3423 25.0661 56.6898 26.0155 55.0878 27.783C54.1233 28.8472 53.1925 29.9258 52.942 30.8059Z" fill="white" fill-opacity="0.5"/>
<path d="M62.3734 0.918007C62.1945 0.611885 62.2661 0.0761719 62.2661 0.0761719H68.3817C68.3817 0.0761719 69.7342 0.26372 70.5991 0.535355C72.2374 1.0499 73.2143 1.48226 74.6404 2.48688C75.9862 3.43492 76.7003 4.10317 77.6803 5.47157C78.3885 6.46028 79.1824 8.22667 79.1824 8.22667C79.1824 8.22667 79.2631 8.37973 79.1824 8.53279C79.1364 8.62011 78.9679 8.60932 78.9679 8.60932C78.9679 8.60932 77.5748 8.42845 76.6432 8.53279C75.7403 8.63391 74.3901 9.14503 74.3901 9.14503C74.3901 9.14503 74.3215 8.58141 74.247 8.22667C73.9443 6.78554 73.3529 5.6629 72.8522 4.85933C72.2646 3.91629 71.672 3.21392 70.3129 2.33382C68.9539 1.45372 67.4161 1.41545 67.4161 1.41545H62.874C62.874 1.41545 62.5523 1.22413 62.3734 0.918007Z" fill="white" fill-opacity="0.5"/>
<path d="M65.9128 23.8395C65.8772 23.6481 65.9485 23.5333 65.9485 23.5333L69.5607 22.2706C69.5607 22.2706 69.7568 22.2028 69.8826 22.2323C69.9999 22.2599 70.1329 22.3854 70.1329 22.3854L70.3833 22.9976L72.1357 27.5129L72.7795 29.2349L73.2086 30.268C73.2086 30.268 73.3471 30.5187 73.4947 30.5359C73.6642 30.5556 73.8524 30.268 73.8524 30.268L74.3173 29.2349C74.3173 29.2349 74.7251 28.3174 74.9253 27.7042C75.3525 26.3957 75.4625 25.6038 75.5688 24.2224C75.6583 23.0607 75.573 22.4034 75.5688 21.2377C75.5671 20.7446 75.5331 19.975 75.5331 19.975C75.5331 19.975 75.5751 19.6733 75.6761 19.5541C75.8068 19.3998 76.1055 19.3242 76.1055 19.3242C76.1055 19.3242 77.3527 18.8758 78.1083 18.4823C78.8966 18.0718 80.0396 17.2578 80.0396 17.2578C80.0396 17.2578 80.2393 17.2137 80.3612 17.2581C80.4934 17.3062 80.576 17.4874 80.576 17.4874C80.576 17.4874 80.5717 19.9471 80.397 21.5056L80.3955 21.5186C80.2506 22.8111 80.1697 23.533 79.8607 24.7961C79.5253 26.1676 79.0737 27.7042 78.7878 28.24C78.5019 28.7757 77.6093 30.4869 76.3559 31.3012C75.6642 31.7505 74.7109 32.0282 74.4246 32.1047C74.1383 32.1813 72.4931 32.143 72.0284 32.1047C71.5637 32.0665 70.616 31.6617 69.8468 31.1099C69.2881 30.709 68.9815 30.4457 68.5593 29.8854C68.1276 29.3125 67.701 28.24 67.701 28.24C67.701 28.24 65.9483 24.0308 65.9128 23.8395Z" fill="white" fill-opacity="0.5"/>
<path d="M9.0023e-05 67.6621L2.04654 57.3275L2.27165 57.4094L1.33028 62.3208H3.35626C3.94973 61.1544 4.50227 60.0493 5.11621 58.9851C4.5432 56.2429 4.27716 54.4625 4.27716 52.6002C4.27716 46.2358 7.0808 44.8442 10.8872 44.8442C12.6471 44.8442 14.2843 45.0488 15.7782 45.3149C17.8656 43.8005 19.9734 43.0024 21.938 43.0024C23.8412 43.0024 25.949 43.8005 25.949 45.1921C25.949 46.3381 24.6189 46.8497 23.1659 46.8497C21.8357 46.8497 20.3418 46.5427 18.6432 46.1539C17.7428 45.9493 16.8219 45.7446 15.8396 45.5604C14.9187 46.2358 13.9978 47.0748 13.0564 48.0366V53.6439C14.4889 55.7722 15.6759 59.0056 15.6759 62.3208C15.6759 66.1886 14.141 68.2351 11.9718 68.2351C10.0277 68.2351 7.6538 66.557 6.46686 62.5664H4.50227C3.6223 62.5664 2.49676 62.5869 1.18703 63.0371L0.225199 67.7439L9.0023e-05 67.6621ZM5.30039 58.6372C8.77935 52.3956 12.1765 48.0162 15.5122 45.5195C14.0796 45.2739 12.5448 45.0897 10.8872 45.0897C7.20358 45.0897 4.52274 46.3995 4.52274 52.6002C4.52274 54.4011 4.76831 56.0587 5.30039 58.6372ZM11.3579 62.3208V49.9603C8.86121 53.03 6.26222 57.1229 3.6223 62.3208H11.3579ZM15.2871 62.5459L6.69197 62.5664C7.89938 66.1068 9.61839 66.8639 11.0918 66.8639C13.2611 66.8639 14.9392 65.2677 15.2871 62.5459ZM21.938 43.2479C20.0757 43.2479 18.1111 43.9642 16.1261 45.3558L18.6842 45.9083C20.3827 46.2972 21.8561 46.6041 23.1659 46.6041C24.4961 46.6041 25.7035 46.1744 25.7035 45.1921C25.7035 43.9642 23.7798 43.2479 21.938 43.2479ZM13.0564 54.0737V62.3208H15.3075C15.328 62.0548 15.3484 61.7888 15.3484 61.5023C15.3484 59.2102 14.3662 56.161 13.0564 54.0737ZM21.6477 62.7915C18.885 62.7915 16.859 60.786 16.859 57.6549C16.859 54.1964 18.885 52.4774 21.6477 52.4774C24.3899 52.4774 26.4364 54.0532 26.4364 57.6549C26.4364 60.7451 24.3899 62.7915 21.6477 62.7915ZM21.6477 62.5459C23.2439 62.5459 24.8197 61.4204 24.8197 57.6549C24.8197 53.869 23.2439 52.723 21.6477 52.723C20.031 52.723 18.4757 53.869 18.4757 57.6549C18.4757 61.4204 20.031 62.5459 21.6477 62.5459ZM27.6198 62.3208H29.1955V52.9686H27.5788V52.723H30.5871L33.841 59.2716L37.1358 52.723H40.0212V52.9686H38.3636V62.3208H40.0212V62.5664H27.6198V62.3208ZM36.972 62.3208V53.603L33.3498 60.8065C33.0019 61.5023 32.6336 62.0343 32.2857 62.3208H36.972ZM33.1043 60.786L29.4411 53.5211V53.7667C29.523 58.3712 30.4643 62.3208 31.6922 62.3208C32.1015 62.3208 32.6131 61.7478 33.1043 60.786ZM29.4411 57.4298V62.3208H31.1192C30.3415 61.6864 29.7481 59.8037 29.4411 57.4298ZM53.1466 62.5664V62.3208H55.5205L53.5355 56.8364C52.9829 60.1721 48.6854 62.3822 45.0836 62.7506C45.5339 60.8474 46.6389 59.2716 47.9077 57.9414C47.4166 57.4094 47.1915 56.734 47.1915 56.1201C47.2119 54.9127 48.0305 53.9099 49.2175 53.5825L51.4072 47.7706H51.8983L57.3009 62.3208H58.8972V62.5664H53.1466ZM53.2285 56.5703C53.2285 55.5471 52.8192 54.6057 51.8983 54.135C51.5913 54.5853 51.1207 55.0764 50.6091 55.6289C48.8286 57.4912 47.2324 59.2921 47.2324 62.0343C49.9951 61.3999 53.2285 59.2512 53.2285 56.5703ZM48.0919 57.7573C48.6035 57.1638 49.2175 56.5908 49.77 56.0792C50.5477 55.3015 51.2435 54.6262 51.6732 54.0123C51.223 53.8076 50.7523 53.7053 50.2407 53.7053C48.6854 53.7053 47.4575 54.7285 47.4575 56.1201C47.4575 56.6112 47.6417 57.2661 48.0919 57.7573ZM52.635 54.3397L51.0183 49.6124L49.5449 53.5006C49.77 53.4597 50.0156 53.4393 50.2202 53.4393C51.1821 53.4393 52.0416 53.7667 52.635 54.3397ZM58.5354 67.1095V66.8639H60.152V60.8269C58.7195 58.76 58.5354 55.7517 58.5354 53.3165V52.989C58.6991 53.0095 59.047 53.03 59.2107 53.03C60.1316 53.03 60.8888 52.723 61.5436 52.4365V53.7667C62.1985 53.1732 63.2013 52.4774 64.6338 52.4774C66.5984 52.4774 68.9722 53.6644 68.9722 57.614C68.9722 60.4381 67.2737 62.7506 64.1631 62.7915C63.0989 62.7915 62.2599 62.5459 61.5436 62.1162V66.8639H63.1603V67.1095H58.5354ZM61.5436 54.0532V61.8297C62.2394 62.2799 63.0989 62.5459 64.1631 62.5459C66.0663 62.5459 67.3555 60.7041 67.3555 57.6754C67.3555 54.3806 66.1072 52.8458 64.1631 52.8458C63.0375 52.8458 62.2599 53.4597 61.5436 54.0532ZM60.152 60.3972V53.2141C59.7632 53.3165 59.047 53.3165 58.7809 53.2755C58.7809 55.6903 58.9242 58.453 60.152 60.3972ZM75.247 62.7915C72.4843 62.7915 70.4583 60.786 70.4583 57.6549C70.4583 54.1964 72.4843 52.4774 75.247 52.4774C77.9892 52.4774 80.0357 54.0532 80.0357 57.6549C80.0357 60.7451 77.9892 62.7915 75.247 62.7915ZM75.247 62.5459C76.8432 62.5459 78.419 61.4204 78.419 57.6549C78.419 53.869 76.8432 52.723 75.247 52.723C73.6303 52.723 72.075 53.869 72.075 57.6549C72.075 61.4204 73.6303 62.5459 75.247 62.5459ZM81.2191 62.3208H82.7949V52.9686H81.1782V52.723H84.1865L87.4403 59.2716L90.7351 52.723H93.6206V52.9686H91.963V62.3208H93.6206V62.5664H81.2191V62.3208ZM90.5714 62.3208V53.603L86.9492 60.8065C86.6013 61.5023 86.2329 62.0343 85.885 62.3208H90.5714ZM86.7036 60.786L83.0404 53.5211V53.7667C83.1223 58.3712 84.0637 62.3208 85.2915 62.3208C85.7008 62.3208 86.2124 61.7478 86.7036 60.786ZM83.0404 57.4298V62.3208H84.7185C83.9409 61.6864 83.3474 59.8037 83.0404 57.4298ZM101.901 55.7517V57.0001C101.922 57.6959 102.29 58.453 102.659 59.1693C103.027 59.947 103.416 60.7041 103.416 61.4409C103.416 62.6278 102.7 62.7915 102.106 62.7915C101.001 62.7915 100.53 62.0957 100.51 60.7041C98.709 62.5869 97.4812 62.7915 96.6831 62.7915C95.0868 62.7915 94.3706 61.8706 94.3706 60.7041C94.3706 59.4149 95.2915 58.5554 96.5193 57.9414C95.6598 57.1638 95.2096 56.2224 95.2096 55.2197C95.2096 53.7462 96.3556 52.4774 98.3816 52.4774C100.101 52.4774 101.901 53.1732 101.901 55.7517ZM100.51 56.7954V55.7517C100.51 53.7871 100.039 52.7435 98.2588 52.7435C96.6012 52.7435 95.4552 53.8281 95.4552 55.2197C95.4552 56.202 95.8645 57.0615 96.7444 57.8391C97.8291 57.348 99.0569 57.041 100.51 56.7954ZM99.0979 59.2102L99.016 59.4558C98.177 59.0874 97.5221 58.7395 96.99 58.3507C96.3556 58.8419 95.9873 59.5172 95.9873 60.4381C95.9873 61.6864 96.7035 62.1367 97.563 62.1367C98.5453 62.1367 99.855 61.052 100.51 60.3358V57.041C99.2411 57.2661 98.0542 57.614 97.1947 58.2075C97.7063 58.5554 98.3202 58.8828 99.0979 59.2102ZM101.901 58.2893V61.1748C101.901 61.6864 102.024 62.3004 102.556 62.3004C102.863 62.3004 103.17 62.0957 103.17 61.4409C103.17 60.4381 102.434 59.3126 101.901 58.2893ZM105.215 62.3208H106.095C104.868 57.348 104.561 55.8745 103.681 51.4747H103.926C104.274 52.6821 104.417 52.723 105.256 52.723H111.785C112.603 52.723 112.746 52.6821 113.115 51.4747H113.36C112.46 55.895 112.194 57.307 110.925 62.3208H111.825V62.5664H105.215V62.3208ZM106.341 62.3208H107.814V52.9686H105.625C104.806 52.9686 104.642 53.0709 104.642 54.0737C104.642 55.4448 105.522 58.9647 106.055 61.1134C106.177 61.625 106.28 62.0139 106.341 62.3208ZM109.206 52.9686V62.3208H110.7C110.741 62.0139 110.843 61.6046 110.966 61.1134C111.519 58.9647 112.378 55.4448 112.378 54.0737C112.378 53.0709 112.235 52.9686 111.416 52.9686H109.206ZM121.527 55.7517V57.0001C121.547 57.6959 121.915 58.453 122.284 59.1693C122.652 59.947 123.041 60.7041 123.041 61.4409C123.041 62.6278 122.325 62.7915 121.731 62.7915C120.626 62.7915 120.155 62.0957 120.135 60.7041C118.334 62.5869 117.106 62.7915 116.308 62.7915C114.712 62.7915 113.996 61.8706 113.996 60.7041C113.996 59.4149 114.917 58.5554 116.144 57.9414C115.285 57.1638 114.835 56.2224 114.835 55.2197C114.835 53.7462 115.981 52.4774 118.007 52.4774C119.726 52.4774 121.527 53.1732 121.527 55.7517ZM120.135 56.7954V55.7517C120.135 53.7871 119.664 52.7435 117.884 52.7435C116.226 52.7435 115.08 53.8281 115.08 55.2197C115.08 56.202 115.49 57.0615 116.37 57.8391C117.454 57.348 118.682 57.041 120.135 56.7954ZM118.723 59.2102L118.641 59.4558C117.802 59.0874 117.147 58.7395 116.615 58.3507C115.981 58.8419 115.612 59.5172 115.612 60.4381C115.612 61.6864 116.329 62.1367 117.188 62.1367C118.17 62.1367 119.48 61.052 120.135 60.3358V57.041C118.866 57.2661 117.679 57.614 116.82 58.2075C117.331 58.5554 117.945 58.8828 118.723 59.2102ZM121.527 58.2893V61.1748C121.527 61.6864 121.649 62.3004 122.181 62.3004C122.488 62.3004 122.795 62.0957 122.795 61.4409C122.795 60.4381 122.059 59.3126 121.527 58.2893Z" fill="white"/>
</svg>
