<svg xmlns="http://www.w3.org/2000/svg">
    <symbol id = "logo-icon" width="37" height="33" viewBox="0 0 37 33">
        <path d="M8.48689 30.8059C8.34448 31.3062 8.48689 32.1452 8.48689 32.1452H0.869304C0.869304 32.1452 0.240336 32.1717 0.118197 31.9539C-0.0963383 31.5712 0.0467265 31.0355 0.0467265 31.0355C0.0467265 31.0355 1.26272 29.0074 2.586 27.9743C4.22851 26.6919 9.55981 24.4539 11.348 23.8799C13.1362 23.3059 20.1224 21.9361 25.4391 19.709C27.5704 18.8162 29.2299 18.2166 30.8037 17.1835C32.3775 16.1503 34.7768 14.2953 33.6648 12.4386C32.8636 11.1009 31.0181 11.061 30.0169 11.2906C29.0156 11.5202 27.1556 12.3238 25.8682 13.51C24.5809 14.6962 21.8626 16.8774 21.8626 16.8774C21.8626 16.8774 18.4631 19.8139 15.9258 20.9717C14.6542 21.552 12.564 22.158 12.564 22.158C12.564 22.158 9.45252 23.3059 7.05633 21.3927C4.66014 19.4794 6.19799 15.1554 6.19799 15.1554L11.7772 0.882492C11.7772 0.882492 11.956 0.423309 11.7772 0.193718C11.6711 0.057488 11.5398 0.0155633 11.4506 0.00399333L11.348 0.00239158C11.348 0.00239158 11.3894 -0.0039359 11.4506 0.00399333L16.2477 0.078922C16.2477 0.078922 16.5477 0.0813985 16.7126 0.193718C16.8707 0.301355 16.963 0.538105 16.963 0.538105L22.0415 13.51C22.0415 13.51 22.1788 13.8213 22.2203 14.0075C22.2635 14.2014 22.1488 14.5432 22.1488 14.5432L19.3949 16.8774C19.3949 16.8774 19.1059 16.9253 18.93 16.8774C18.7787 16.8361 18.5723 16.686 18.5723 16.686L15.747 9.87482C15.747 9.87482 14.8529 7.54064 13.4939 7.34932C11.4071 7.05554 9.55981 11.2906 9.55981 11.2906C9.55981 11.2906 6.51987 16.0355 8.80877 18.8672C11.0977 21.6988 15.747 19.709 15.747 19.709C15.747 19.709 19.1805 18.3314 21.6838 16.3034C24.1871 14.2753 25.8682 12.4769 27.263 11.2906C28.6578 10.1044 29.2785 9.66437 30.8037 9.41564C32.8842 9.07634 35.167 9.49217 35.9895 10.9845C36.8924 12.623 36.4145 14.4515 35.1311 15.7677C34.2729 16.6478 30.8037 18.2166 30.8037 18.2166C30.8037 18.2166 17.106 23.3825 15.4966 24.2243C13.8873 25.0661 12.2347 26.0155 10.6327 27.783C9.66819 28.8472 8.7374 29.9258 8.48689 30.8059Z" fill="white"/>
        <path d="M17.9184 0.918007C17.7395 0.611885 17.811 0.0761719 17.811 0.0761719H23.9266C23.9266 0.0761719 25.2791 0.26372 26.144 0.535355C27.7823 1.0499 28.7592 1.48226 30.1853 2.48688C31.5311 3.43492 32.2452 4.10317 33.2253 5.47157C33.9334 6.46028 34.7274 8.22667 34.7274 8.22667C34.7274 8.22667 34.808 8.37973 34.7274 8.53279C34.6813 8.62011 34.5128 8.60932 34.5128 8.60932C34.5128 8.60932 33.1197 8.42845 32.1881 8.53279C31.2852 8.63391 29.935 9.14503 29.935 9.14503C29.935 9.14503 29.8664 8.58141 29.7919 8.22667C29.4892 6.78554 28.8978 5.6629 28.3971 4.85933C27.8095 3.91629 27.2169 3.21392 25.8579 2.33382C24.4988 1.45372 22.961 1.41545 22.961 1.41545H18.4189C18.4189 1.41545 18.0972 1.22413 17.9184 0.918007Z" fill="white"/>
        <path d="M21.4577 23.8395C21.4221 23.6481 21.4934 23.5333 21.4934 23.5333L25.1056 22.2706C25.1056 22.2706 25.3017 22.2028 25.4275 22.2323C25.5448 22.2599 25.6778 22.3854 25.6778 22.3854L25.9282 22.9976L27.6806 27.5129L28.3244 29.2349L28.7535 30.268C28.7535 30.268 28.8921 30.5187 29.0397 30.5359C29.2092 30.5556 29.3973 30.268 29.3973 30.268L29.8622 29.2349C29.8622 29.2349 30.27 28.3174 30.4702 27.7042C30.8974 26.3957 31.0074 25.6038 31.1138 24.2224C31.2032 23.0607 31.1179 22.4034 31.1138 21.2377C31.112 20.7446 31.078 19.975 31.078 19.975C31.078 19.975 31.12 19.6733 31.2211 19.5541C31.3517 19.3998 31.6504 19.3242 31.6504 19.3242C31.6504 19.3242 32.8976 18.8758 33.6532 18.4823C34.4415 18.0718 35.5845 17.2578 35.5845 17.2578C35.5845 17.2578 35.7843 17.2137 35.9061 17.2581C36.0384 17.3062 36.1209 17.4874 36.1209 17.4874C36.1209 17.4874 36.1167 19.9471 35.9419 21.5056L35.9405 21.5186C35.7955 22.8111 35.7146 23.533 35.4057 24.7961C35.0702 26.1676 34.6186 27.7042 34.3327 28.24C34.0468 28.7757 33.1543 30.4869 31.9008 31.3012C31.2091 31.7505 30.2559 32.0282 29.9695 32.1047C29.6832 32.1813 28.0381 32.143 27.5733 32.1047C27.1086 32.0665 26.161 31.6617 25.3917 31.1099C24.833 30.709 24.5264 30.4457 24.1042 29.8854C23.6726 29.3125 23.2459 28.24 23.2459 28.24C23.2459 28.24 21.4932 24.0308 21.4577 23.8395Z" fill="white"/>
    </symbol>
    <symbol id = "arrow-left-icon" width="59" height="181" viewBox="0 0 59 181">
        <path d="M56.5005 2.5L2.50049 90.5" stroke="currentColor" stroke-width="5" stroke-linecap="round" stroke-linejoin="round"/>
        <path d="M2.50049 90.5L56.5005 178.5" stroke="currentColor" stroke-width="5" stroke-linecap="round" stroke-linejoin="round"/>
    </symbol>
    <symbol id = "arrow-right-icon" width="59" height="181" viewBox="0 0 59 181">
        <path d="M2.50049 2.5L56.5005 90.5" stroke="currentColor" stroke-width="5" stroke-linecap="round" stroke-linejoin="round"/>
        <path d="M56.5005 90.5L2.50049 178.5" stroke="currentColor" stroke-width="5" stroke-linecap="round" stroke-linejoin="round"/>
    </symbol>

    <symbol id = "big-logo">
        <path d="M63.8342 216.562C62.7631 220.079 63.8342 225.977 63.8342 225.977H6.53848C6.53848 225.977 1.80769 226.163 0.889023 224.632C-0.724609 221.942 0.351454 218.176 0.351454 218.176C0.351454 218.176 9.4976 203.919 19.4506 196.656C31.8048 187.64 71.9042 171.908 85.3542 167.873C98.8042 163.838 151.351 154.208 191.34 138.552C207.371 132.275 219.853 128.061 231.69 120.798C243.527 113.535 261.574 100.494 253.21 87.4417C247.184 78.0378 233.303 77.7578 225.772 79.3718C218.241 80.9858 204.251 86.6348 194.568 94.9737C184.885 103.313 164.44 118.646 164.44 118.646C164.44 118.646 138.87 139.289 119.786 147.429C110.222 151.508 94.5002 155.768 94.5002 155.768C94.5002 155.768 71.0972 163.838 53.0742 150.388C35.0513 136.938 46.6182 106.541 46.6182 106.541L88.5822 6.20381C88.5822 6.20381 89.9272 2.97581 88.5822 1.36181C87.7841 0.404134 86.7967 0.109408 86.1255 0.0280726L85.3542 0.0168125C85.3542 0.0168125 85.6656 -0.0276689 86.1255 0.0280726L122.207 0.554812C122.207 0.554812 124.463 0.572222 125.704 1.36181C126.893 2.11849 127.587 3.78281 127.587 3.78281L165.785 94.9737C165.785 94.9737 166.818 97.1621 167.13 98.4707C167.455 99.8341 166.592 102.237 166.592 102.237L145.879 118.646C145.879 118.646 143.705 118.983 142.382 118.646C141.244 118.356 139.692 117.301 139.692 117.301L118.441 69.4188C118.441 69.4188 111.716 53.0098 101.494 51.6648C85.7988 49.5996 71.9042 79.3718 71.9042 79.3718C71.9042 79.3718 49.0392 112.728 66.2552 132.634C83.4712 152.54 118.441 138.552 118.441 138.552C118.441 138.552 144.266 128.868 163.095 114.611C181.924 100.354 194.568 87.7108 205.059 79.3718C215.55 71.0328 220.218 67.9393 231.69 66.1908C247.339 63.8055 264.509 66.7288 270.695 77.2198C277.486 88.7379 273.892 101.592 264.239 110.845C257.784 117.032 231.69 128.061 231.69 128.061C231.69 128.061 128.663 164.376 116.558 170.294C104.453 176.212 92.0233 182.886 79.9742 195.311C72.7193 202.792 65.7184 210.375 63.8342 216.562Z" fill="white"/>
        <path d="M134.769 6.4551C133.423 4.30311 133.961 0.537109 133.961 0.537109H179.96C179.96 0.537109 190.133 1.85555 196.638 3.76511C208.96 7.38231 216.309 10.4217 227.035 17.4841C237.157 24.1487 242.528 28.8464 249.9 38.4661C255.226 45.4166 261.198 57.8341 261.198 57.8341C261.198 57.8341 261.804 58.9101 261.198 59.9861C260.852 60.5999 259.584 60.5241 259.584 60.5241C259.584 60.5241 249.106 59.2526 242.099 59.9861C235.308 60.6969 225.152 64.2901 225.152 64.2901C225.152 64.2901 224.636 60.3279 224.076 57.8341C221.799 47.7032 217.351 39.8111 213.585 34.1621C209.165 27.5327 204.708 22.5951 194.486 16.4081C184.264 10.2211 172.697 9.9521 172.697 9.9521H138.534C138.534 9.9521 136.114 8.6071 134.769 6.4551Z" fill="white"/>
        <path d="M161.401 167.585C161.134 166.24 161.67 165.433 161.67 165.433L188.839 156.556C188.839 156.556 190.314 156.079 191.26 156.287C192.143 156.481 193.143 157.363 193.143 157.363L195.026 161.667L208.207 193.409L213.049 205.514L216.277 212.777C216.277 212.777 217.319 214.54 218.429 214.66C219.704 214.798 221.119 212.777 221.119 212.777L224.616 205.514C224.616 205.514 227.684 199.064 229.189 194.754C232.402 185.555 233.23 179.988 234.03 170.277C234.702 162.11 234.061 157.49 234.03 149.295C234.016 145.829 233.761 140.418 233.761 140.418C233.761 140.418 234.077 138.298 234.837 137.459C235.819 136.375 238.066 135.843 238.066 135.843C238.066 135.843 247.447 132.691 253.13 129.925C259.059 127.04 267.656 121.317 267.656 121.317C267.656 121.317 269.159 121.007 270.076 121.319C271.07 121.657 271.691 122.931 271.691 122.931C271.691 122.931 271.659 140.222 270.345 151.178L270.334 151.27C269.244 160.356 268.635 165.431 266.311 174.31C263.788 183.951 260.392 194.754 258.241 198.52C256.091 202.286 249.377 214.316 239.949 220.04C234.747 223.199 227.577 225.151 225.423 225.689C223.27 226.227 210.896 225.958 207.4 225.689C203.905 225.42 196.777 222.574 190.991 218.695C186.789 215.877 184.483 214.026 181.307 210.087C178.061 206.06 174.851 198.52 174.851 198.52C174.851 198.52 161.669 168.93 161.401 167.585Z" fill="white"/>
    </symbol>
    <symbol id="logo-text-small" width="124" height="69" viewBox="0 0 124 69">
        <path d="M52.942 30.8059C52.7996 31.3062 52.942 32.1452 52.942 32.1452H45.3244C45.3244 32.1452 44.6954 32.1717 44.5733 31.9539C44.3587 31.5712 44.5018 31.0355 44.5018 31.0355C44.5018 31.0355 45.7178 29.0074 47.0411 27.9743C48.6836 26.6919 54.0149 24.4539 55.8031 23.8799C57.5913 23.3059 64.5775 21.9361 69.8941 19.709C72.0254 18.8162 73.685 18.2166 75.2587 17.1835C76.8325 16.1503 79.2319 14.2953 78.1199 12.4386C77.3187 11.1009 75.4732 11.061 74.4719 11.2906C73.4707 11.5202 71.6106 12.3238 70.3233 13.51C69.036 14.6962 66.3177 16.8774 66.3177 16.8774C66.3177 16.8774 62.9181 19.8139 60.3809 20.9717C59.1093 21.552 57.0191 22.158 57.0191 22.158C57.0191 22.158 53.9076 23.3059 51.5114 21.3927C49.1152 19.4794 50.6531 15.1554 50.6531 15.1554L56.2323 0.882492C56.2323 0.882492 56.4111 0.423309 56.2323 0.193718C56.1262 0.057488 55.9949 0.0155633 55.9056 0.00399333L55.8031 0.00239158C55.8031 0.00239158 55.8445 -0.0039359 55.9056 0.00399333L60.7028 0.078922C60.7028 0.078922 61.0027 0.0813985 61.1677 0.193718C61.3258 0.301355 61.4181 0.538105 61.4181 0.538105L66.4965 13.51C66.4965 13.51 66.6339 13.8213 66.6754 14.0075C66.7185 14.2014 66.6038 14.5432 66.6038 14.5432L63.85 16.8774C63.85 16.8774 63.561 16.9253 63.3851 16.8774C63.2338 16.8361 63.0274 16.686 63.0274 16.686L60.2021 9.87482C60.2021 9.87482 59.308 7.54064 57.9489 7.34932C55.8622 7.05554 54.0149 11.2906 54.0149 11.2906C54.0149 11.2906 50.9749 16.0355 53.2638 18.8672C55.5527 21.6988 60.2021 19.709 60.2021 19.709C60.2021 19.709 63.6356 18.3314 66.1389 16.3034C68.6422 14.2753 70.3233 12.4769 71.7181 11.2906C73.1129 10.1044 73.7336 9.66437 75.2587 9.41564C77.3393 9.07634 79.6221 9.49217 80.4445 10.9845C81.3475 12.623 80.8696 14.4515 79.5862 15.7677C78.728 16.6478 75.2587 18.2166 75.2587 18.2166C75.2587 18.2166 61.5611 23.3825 59.9517 24.2243C58.3423 25.0661 56.6898 26.0155 55.0878 27.783C54.1233 28.8472 53.1925 29.9258 52.942 30.8059Z" fill="white" fill-opacity="0.5"/>
        <path d="M62.3734 0.918007C62.1945 0.611885 62.2661 0.0761719 62.2661 0.0761719H68.3817C68.3817 0.0761719 69.7342 0.26372 70.5991 0.535355C72.2374 1.0499 73.2143 1.48226 74.6404 2.48688C75.9862 3.43492 76.7003 4.10317 77.6803 5.47157C78.3885 6.46028 79.1824 8.22667 79.1824 8.22667C79.1824 8.22667 79.2631 8.37973 79.1824 8.53279C79.1364 8.62011 78.9679 8.60932 78.9679 8.60932C78.9679 8.60932 77.5748 8.42845 76.6432 8.53279C75.7403 8.63391 74.3901 9.14503 74.3901 9.14503C74.3901 9.14503 74.3215 8.58141 74.247 8.22667C73.9443 6.78554 73.3529 5.6629 72.8522 4.85933C72.2646 3.91629 71.672 3.21392 70.3129 2.33382C68.9539 1.45372 67.4161 1.41545 67.4161 1.41545H62.874C62.874 1.41545 62.5523 1.22413 62.3734 0.918007Z" fill="white" fill-opacity="0.5"/>
        <path d="M65.9128 23.8395C65.8772 23.6481 65.9485 23.5333 65.9485 23.5333L69.5607 22.2706C69.5607 22.2706 69.7568 22.2028 69.8826 22.2323C69.9999 22.2599 70.1329 22.3854 70.1329 22.3854L70.3833 22.9976L72.1357 27.5129L72.7795 29.2349L73.2086 30.268C73.2086 30.268 73.3471 30.5187 73.4947 30.5359C73.6642 30.5556 73.8524 30.268 73.8524 30.268L74.3173 29.2349C74.3173 29.2349 74.7251 28.3174 74.9253 27.7042C75.3525 26.3957 75.4625 25.6038 75.5688 24.2224C75.6583 23.0607 75.573 22.4034 75.5688 21.2377C75.5671 20.7446 75.5331 19.975 75.5331 19.975C75.5331 19.975 75.5751 19.6733 75.6761 19.5541C75.8068 19.3998 76.1055 19.3242 76.1055 19.3242C76.1055 19.3242 77.3527 18.8758 78.1083 18.4823C78.8966 18.0718 80.0396 17.2578 80.0396 17.2578C80.0396 17.2578 80.2393 17.2137 80.3612 17.2581C80.4934 17.3062 80.576 17.4874 80.576 17.4874C80.576 17.4874 80.5717 19.9471 80.397 21.5056L80.3955 21.5186C80.2506 22.8111 80.1697 23.533 79.8607 24.7961C79.5253 26.1676 79.0737 27.7042 78.7878 28.24C78.5019 28.7757 77.6093 30.4869 76.3559 31.3012C75.6642 31.7505 74.7109 32.0282 74.4246 32.1047C74.1383 32.1813 72.4931 32.143 72.0284 32.1047C71.5637 32.0665 70.616 31.6617 69.8468 31.1099C69.2881 30.709 68.9815 30.4457 68.5593 29.8854C68.1276 29.3125 67.701 28.24 67.701 28.24C67.701 28.24 65.9483 24.0308 65.9128 23.8395Z" fill="white" fill-opacity="0.5"/>
        <path d="M9.0023e-05 67.6621L2.04654 57.3275L2.27165 57.4094L1.33028 62.3208H3.35626C3.94973 61.1544 4.50227 60.0493 5.11621 58.9851C4.5432 56.2429 4.27716 54.4625 4.27716 52.6002C4.27716 46.2358 7.0808 44.8442 10.8872 44.8442C12.6471 44.8442 14.2843 45.0488 15.7782 45.3149C17.8656 43.8005 19.9734 43.0024 21.938 43.0024C23.8412 43.0024 25.949 43.8005 25.949 45.1921C25.949 46.3381 24.6189 46.8497 23.1659 46.8497C21.8357 46.8497 20.3418 46.5427 18.6432 46.1539C17.7428 45.9493 16.8219 45.7446 15.8396 45.5604C14.9187 46.2358 13.9978 47.0748 13.0564 48.0366V53.6439C14.4889 55.7722 15.6759 59.0056 15.6759 62.3208C15.6759 66.1886 14.141 68.2351 11.9718 68.2351C10.0277 68.2351 7.6538 66.557 6.46686 62.5664H4.50227C3.6223 62.5664 2.49676 62.5869 1.18703 63.0371L0.225199 67.7439L9.0023e-05 67.6621ZM5.30039 58.6372C8.77935 52.3956 12.1765 48.0162 15.5122 45.5195C14.0796 45.2739 12.5448 45.0897 10.8872 45.0897C7.20358 45.0897 4.52274 46.3995 4.52274 52.6002C4.52274 54.4011 4.76831 56.0587 5.30039 58.6372ZM11.3579 62.3208V49.9603C8.86121 53.03 6.26222 57.1229 3.6223 62.3208H11.3579ZM15.2871 62.5459L6.69197 62.5664C7.89938 66.1068 9.61839 66.8639 11.0918 66.8639C13.2611 66.8639 14.9392 65.2677 15.2871 62.5459ZM21.938 43.2479C20.0757 43.2479 18.1111 43.9642 16.1261 45.3558L18.6842 45.9083C20.3827 46.2972 21.8561 46.6041 23.1659 46.6041C24.4961 46.6041 25.7035 46.1744 25.7035 45.1921C25.7035 43.9642 23.7798 43.2479 21.938 43.2479ZM13.0564 54.0737V62.3208H15.3075C15.328 62.0548 15.3484 61.7888 15.3484 61.5023C15.3484 59.2102 14.3662 56.161 13.0564 54.0737ZM21.6477 62.7915C18.885 62.7915 16.859 60.786 16.859 57.6549C16.859 54.1964 18.885 52.4774 21.6477 52.4774C24.3899 52.4774 26.4364 54.0532 26.4364 57.6549C26.4364 60.7451 24.3899 62.7915 21.6477 62.7915ZM21.6477 62.5459C23.2439 62.5459 24.8197 61.4204 24.8197 57.6549C24.8197 53.869 23.2439 52.723 21.6477 52.723C20.031 52.723 18.4757 53.869 18.4757 57.6549C18.4757 61.4204 20.031 62.5459 21.6477 62.5459ZM27.6198 62.3208H29.1955V52.9686H27.5788V52.723H30.5871L33.841 59.2716L37.1358 52.723H40.0212V52.9686H38.3636V62.3208H40.0212V62.5664H27.6198V62.3208ZM36.972 62.3208V53.603L33.3498 60.8065C33.0019 61.5023 32.6336 62.0343 32.2857 62.3208H36.972ZM33.1043 60.786L29.4411 53.5211V53.7667C29.523 58.3712 30.4643 62.3208 31.6922 62.3208C32.1015 62.3208 32.6131 61.7478 33.1043 60.786ZM29.4411 57.4298V62.3208H31.1192C30.3415 61.6864 29.7481 59.8037 29.4411 57.4298ZM53.1466 62.5664V62.3208H55.5205L53.5355 56.8364C52.9829 60.1721 48.6854 62.3822 45.0836 62.7506C45.5339 60.8474 46.6389 59.2716 47.9077 57.9414C47.4166 57.4094 47.1915 56.734 47.1915 56.1201C47.2119 54.9127 48.0305 53.9099 49.2175 53.5825L51.4072 47.7706H51.8983L57.3009 62.3208H58.8972V62.5664H53.1466ZM53.2285 56.5703C53.2285 55.5471 52.8192 54.6057 51.8983 54.135C51.5913 54.5853 51.1207 55.0764 50.6091 55.6289C48.8286 57.4912 47.2324 59.2921 47.2324 62.0343C49.9951 61.3999 53.2285 59.2512 53.2285 56.5703ZM48.0919 57.7573C48.6035 57.1638 49.2175 56.5908 49.77 56.0792C50.5477 55.3015 51.2435 54.6262 51.6732 54.0123C51.223 53.8076 50.7523 53.7053 50.2407 53.7053C48.6854 53.7053 47.4575 54.7285 47.4575 56.1201C47.4575 56.6112 47.6417 57.2661 48.0919 57.7573ZM52.635 54.3397L51.0183 49.6124L49.5449 53.5006C49.77 53.4597 50.0156 53.4393 50.2202 53.4393C51.1821 53.4393 52.0416 53.7667 52.635 54.3397ZM58.5354 67.1095V66.8639H60.152V60.8269C58.7195 58.76 58.5354 55.7517 58.5354 53.3165V52.989C58.6991 53.0095 59.047 53.03 59.2107 53.03C60.1316 53.03 60.8888 52.723 61.5436 52.4365V53.7667C62.1985 53.1732 63.2013 52.4774 64.6338 52.4774C66.5984 52.4774 68.9722 53.6644 68.9722 57.614C68.9722 60.4381 67.2737 62.7506 64.1631 62.7915C63.0989 62.7915 62.2599 62.5459 61.5436 62.1162V66.8639H63.1603V67.1095H58.5354ZM61.5436 54.0532V61.8297C62.2394 62.2799 63.0989 62.5459 64.1631 62.5459C66.0663 62.5459 67.3555 60.7041 67.3555 57.6754C67.3555 54.3806 66.1072 52.8458 64.1631 52.8458C63.0375 52.8458 62.2599 53.4597 61.5436 54.0532ZM60.152 60.3972V53.2141C59.7632 53.3165 59.047 53.3165 58.7809 53.2755C58.7809 55.6903 58.9242 58.453 60.152 60.3972ZM75.247 62.7915C72.4843 62.7915 70.4583 60.786 70.4583 57.6549C70.4583 54.1964 72.4843 52.4774 75.247 52.4774C77.9892 52.4774 80.0357 54.0532 80.0357 57.6549C80.0357 60.7451 77.9892 62.7915 75.247 62.7915ZM75.247 62.5459C76.8432 62.5459 78.419 61.4204 78.419 57.6549C78.419 53.869 76.8432 52.723 75.247 52.723C73.6303 52.723 72.075 53.869 72.075 57.6549C72.075 61.4204 73.6303 62.5459 75.247 62.5459ZM81.2191 62.3208H82.7949V52.9686H81.1782V52.723H84.1865L87.4403 59.2716L90.7351 52.723H93.6206V52.9686H91.963V62.3208H93.6206V62.5664H81.2191V62.3208ZM90.5714 62.3208V53.603L86.9492 60.8065C86.6013 61.5023 86.2329 62.0343 85.885 62.3208H90.5714ZM86.7036 60.786L83.0404 53.5211V53.7667C83.1223 58.3712 84.0637 62.3208 85.2915 62.3208C85.7008 62.3208 86.2124 61.7478 86.7036 60.786ZM83.0404 57.4298V62.3208H84.7185C83.9409 61.6864 83.3474 59.8037 83.0404 57.4298ZM101.901 55.7517V57.0001C101.922 57.6959 102.29 58.453 102.659 59.1693C103.027 59.947 103.416 60.7041 103.416 61.4409C103.416 62.6278 102.7 62.7915 102.106 62.7915C101.001 62.7915 100.53 62.0957 100.51 60.7041C98.709 62.5869 97.4812 62.7915 96.6831 62.7915C95.0868 62.7915 94.3706 61.8706 94.3706 60.7041C94.3706 59.4149 95.2915 58.5554 96.5193 57.9414C95.6598 57.1638 95.2096 56.2224 95.2096 55.2197C95.2096 53.7462 96.3556 52.4774 98.3816 52.4774C100.101 52.4774 101.901 53.1732 101.901 55.7517ZM100.51 56.7954V55.7517C100.51 53.7871 100.039 52.7435 98.2588 52.7435C96.6012 52.7435 95.4552 53.8281 95.4552 55.2197C95.4552 56.202 95.8645 57.0615 96.7444 57.8391C97.8291 57.348 99.0569 57.041 100.51 56.7954ZM99.0979 59.2102L99.016 59.4558C98.177 59.0874 97.5221 58.7395 96.99 58.3507C96.3556 58.8419 95.9873 59.5172 95.9873 60.4381C95.9873 61.6864 96.7035 62.1367 97.563 62.1367C98.5453 62.1367 99.855 61.052 100.51 60.3358V57.041C99.2411 57.2661 98.0542 57.614 97.1947 58.2075C97.7063 58.5554 98.3202 58.8828 99.0979 59.2102ZM101.901 58.2893V61.1748C101.901 61.6864 102.024 62.3004 102.556 62.3004C102.863 62.3004 103.17 62.0957 103.17 61.4409C103.17 60.4381 102.434 59.3126 101.901 58.2893ZM105.215 62.3208H106.095C104.868 57.348 104.561 55.8745 103.681 51.4747H103.926C104.274 52.6821 104.417 52.723 105.256 52.723H111.785C112.603 52.723 112.746 52.6821 113.115 51.4747H113.36C112.46 55.895 112.194 57.307 110.925 62.3208H111.825V62.5664H105.215V62.3208ZM106.341 62.3208H107.814V52.9686H105.625C104.806 52.9686 104.642 53.0709 104.642 54.0737C104.642 55.4448 105.522 58.9647 106.055 61.1134C106.177 61.625 106.28 62.0139 106.341 62.3208ZM109.206 52.9686V62.3208H110.7C110.741 62.0139 110.843 61.6046 110.966 61.1134C111.519 58.9647 112.378 55.4448 112.378 54.0737C112.378 53.0709 112.235 52.9686 111.416 52.9686H109.206ZM121.527 55.7517V57.0001C121.547 57.6959 121.915 58.453 122.284 59.1693C122.652 59.947 123.041 60.7041 123.041 61.4409C123.041 62.6278 122.325 62.7915 121.731 62.7915C120.626 62.7915 120.155 62.0957 120.135 60.7041C118.334 62.5869 117.106 62.7915 116.308 62.7915C114.712 62.7915 113.996 61.8706 113.996 60.7041C113.996 59.4149 114.917 58.5554 116.144 57.9414C115.285 57.1638 114.835 56.2224 114.835 55.2197C114.835 53.7462 115.981 52.4774 118.007 52.4774C119.726 52.4774 121.527 53.1732 121.527 55.7517ZM120.135 56.7954V55.7517C120.135 53.7871 119.664 52.7435 117.884 52.7435C116.226 52.7435 115.08 53.8281 115.08 55.2197C115.08 56.202 115.49 57.0615 116.37 57.8391C117.454 57.348 118.682 57.041 120.135 56.7954ZM118.723 59.2102L118.641 59.4558C117.802 59.0874 117.147 58.7395 116.615 58.3507C115.981 58.8419 115.612 59.5172 115.612 60.4381C115.612 61.6864 116.329 62.1367 117.188 62.1367C118.17 62.1367 119.48 61.052 120.135 60.3358V57.041C118.866 57.2661 117.679 57.614 116.82 58.2075C117.331 58.5554 117.945 58.8828 118.723 59.2102ZM121.527 58.2893V61.1748C121.527 61.6864 121.649 62.3004 122.181 62.3004C122.488 62.3004 122.795 62.0957 122.795 61.4409C122.795 60.4381 122.059 59.3126 121.527 58.2893Z" fill="white"/>
    </symbol>
    <symbol id = "like-icon" width="20" height="19" viewBox="0 0 20 19">
        <path d="M9.51766 2.72167L10.0003 3.22834L10.4817 2.72167C10.991 2.19101 12.1523 1.24967 13.543 0.852341C14.8803 0.471008 16.4323 0.583008 17.9177 2.13634C19.4097 3.69634 19.5283 5.34967 19.155 6.78167C18.771 8.25234 17.8657 9.47501 17.3577 10.0043L13.0177 14.5457L10.5857 17.091L9.99899 17.7043L9.41499 17.091L6.98299 14.5457L2.64299 10.0043C2.13633 9.47367 1.22966 8.25234 0.845661 6.78167C0.472328 5.34834 0.590994 3.69767 2.08166 2.13501C3.56699 0.581674 5.12033 0.468341 6.45766 0.851008C7.84699 1.24834 9.00966 2.18967 9.51766 2.72167Z" fill="var(--like-fill, none)" stroke="var(--like-stroke, #9BA57D)" stroke-width="1.33333" />
    </symbol>


    <symbol id = "busket-icon" width="35" height="35" viewBox="0 0 35 35">
        <rect width="35" height="35" rx="17.5" transform="matrix(-4.37114e-08 1 1 4.37114e-08 0 0)" fill="var(--basket-bg, #9BA57D)"/>
        <path fill-rule="evenodd" clip-rule="evenodd" d="M13.8571 13.8095V13.3333C13.8571 12.4493 14.2083 11.6014 14.8335 10.9763C15.4586 10.3512 16.3064 10 17.1905 10C18.0745 10 18.9224 10.3512 19.5475 10.9763C20.1726 11.6014 20.5238 12.4493 20.5238 13.3333V13.8095H23.381V26.1905H11V13.8095H13.8571ZM14.8095 13.3333C14.8095 12.7019 15.0604 12.0963 15.5069 11.6497C15.9534 11.2032 16.559 10.9524 17.1905 10.9524C17.8219 10.9524 18.4275 11.2032 18.8741 11.6497C19.3206 12.0963 19.5714 12.7019 19.5714 13.3333V13.8095H14.8095V13.3333ZM13.8571 14.7619V16.1905H14.8095V14.7619H19.5714V16.1905H20.5238V14.7619H22.4286V25.2381H11.9524V14.7619H13.8571Z" fill="var(--basket-fg, #F2F2F2)"/>
    </symbol>
    <symbol id = "like-icon-large" width="28" height="27" viewBox="0 0 28 27">
        <path d="M12.9941 3.68224L13.6663 4.42567L14.3367 3.68224C15.046 2.90361 16.6635 1.52241 18.6003 0.939407C20.4629 0.379884 22.6245 0.54422 24.6932 2.8234C26.7711 5.11235 26.9364 7.53826 26.4165 9.6394C25.8816 11.7973 24.6207 13.5913 23.9132 14.368L17.8687 21.0314L14.4815 24.7661L13.6644 25.666L12.8511 24.7661L9.46389 21.0314L3.41936 14.368C2.7137 13.5893 1.45094 11.7973 0.916121 9.6394C0.396161 7.5363 0.561434 5.11431 2.63756 2.82144C4.70626 0.542263 6.86966 0.375972 8.73223 0.937451C10.6672 1.52045 12.2865 2.90165 12.9941 3.68224Z" fill="var(--like-fill, none)" stroke="var(--like-stroke, white)" stroke-width="1.33333" />
    </symbol>
</svg>
